<svg width="121" height="42" viewBox="0 0 121 42" fill="none" xmlns="http://www.w3.org/2000/svg">
<path d="M25.4477 35.7654H22.7041L19.1156 21.1748H22.9683L25.6228 32.4381H26.2957L28.9502 21.1748H32.8029L27.666 41.8948H23.844L25.4477 35.7654Z" fill="#0A3254"/>
<path d="M35.3867 21.1746H39.2702V21.9611C40.8463 21.0271 41.7219 20.8213 42.831 20.8213C46.5363 20.8213 48.3459 23.1256 48.3459 28.5851C48.3459 34.1891 46.4195 36.1155 41.7803 36.1155C40.963 36.1155 40.2933 36.0571 39.3009 35.882V41.8946H35.3898V21.1746H35.3867ZM44.3764 28.5882C44.3764 25.6418 43.6176 24.3299 41.7496 24.3299C41.1351 24.3299 40.3793 24.4743 39.6481 24.7662L39.2978 24.9106V32.5577C40.1734 32.6714 40.9016 32.7297 41.3993 32.7297C43.6176 32.7297 44.3764 31.5346 44.3764 28.5882Z" fill="#0A3254"/>
<path d="M50.4229 28.8186C50.4229 23.4789 52.466 20.8213 56.9608 20.8213C61.0471 20.8213 63.2346 23.0119 63.2346 27.4207L62.9427 30.1336H54.3647C54.4814 32.1767 55.2403 32.6744 57.6337 32.6744C58.626 32.6744 61.0471 32.5853 61.895 32.4993L62.7123 32.4102L62.7706 35.3013C60.5217 35.8543 58.4509 36.1185 56.8748 36.1185C52.2908 36.1155 50.4229 33.928 50.4229 28.8186ZM59.3818 27.1565C59.3818 24.8215 58.7397 24.035 56.9301 24.035C55.0314 24.035 54.3616 24.9106 54.3309 27.1565H59.3818Z" fill="#0A3254"/>
<path d="M65.8123 21.1754H69.6926V22.7239C71.3302 21.7592 72.8756 21.1171 74.3626 20.8252V24.767C72.7865 25.0866 71.4439 25.4368 70.3071 25.787L69.7234 25.9898V35.7661H65.8123V21.1754Z" fill="#0A3254"/>
<path d="M8.53745 23.8544H4.55261V15.9277H0.58313V19.8911V23.8544V31.7995H0.586202V35.7659H4.55261V27.8393H8.53745V23.8544Z" fill="#0A3254"/>
<path d="M16.5009 19.8904V15.9209H12.5192V19.8904V23.8599L16.5009 19.8904Z" fill="#0A3254"/>
<path d="M16.4949 31.7871H12.5284V35.7689H16.4949V31.7871Z" fill="#0A3254"/>
<path d="M12.5254 31.7935V27.824H8.54053L12.5254 23.8545H16.5102V27.824L12.5254 31.7935Z" fill="#FF4E00"/>
<path d="M36.3699 8.00994V0.0986328H28.4248L20.4828 8.00994H28.4248V15.9213L36.3699 8.00994Z" fill="#FF4E00"/>
<path d="M84.2987 15.9248H77.0018V35.7691H81.0297V29.9931H84.2987C88.9379 29.9931 91.362 27.4523 91.362 22.813C91.362 18.2321 88.9994 15.9248 84.2987 15.9248ZM84.268 26.549H81.0297V19.3689H84.268C86.3418 19.3689 87.2758 20.3613 87.2758 22.813C87.2758 25.2955 86.2834 26.549 84.268 26.549Z" fill="#0A3254"/>
<path d="M105.098 29.4461V25.7316C105.098 22.3182 103.55 20.8281 99.8171 20.8281C97.9184 20.8281 95.9336 21.12 93.8628 21.673L93.9796 24.3859C95.1194 24.2968 98.0935 24.1524 99.4668 24.1524C100.665 24.1524 101.19 24.5334 101.19 25.7285V26.6349L98.0689 26.8684C94.5941 27.0988 92.9626 28.211 92.9626 31.3325C92.9626 34.5155 94.4804 36.1192 97.4852 36.1192C98.9445 36.1192 100.376 35.769 101.774 35.0992C102.788 35.7905 105.102 36.1039 105.102 36.1039V31.8026V29.4461H105.098ZM101.304 32.4723L100.865 32.5891C99.9891 32.8226 99.1719 32.9393 98.4437 32.9393C97.4821 32.9393 97.0151 32.414 97.0151 31.3325C97.0151 30.2541 97.5681 29.6704 98.6496 29.5843L101.307 29.3478V32.4723H101.304Z" fill="#0A3254"/>
<path d="M116.733 21.1777L114.076 32.441H113.403L110.748 21.1777H106.896L110.487 35.7683H113.231L111.624 41.9008H115.449L120.583 21.1777H116.733Z" fill="#0A3254"/>
</svg>
